<svg id="my-svg" width="100%" xmlns="http://www.w3.org/2000/svg" xmlns:xlink="http://www.w3.org/1999/xlink" class="flowchart" style="max-width: 530.797px; background-color: transparent;" viewBox="10.5234375 0 530.796875 452.9469909667969" role="graphics-document document" aria-roledescription="flowchart-v2"><style>#my-svg{font-family:"trebuchet ms",verdana,arial,sans-serif;font-size:16px;fill:#333;}@keyframes edge-animation-frame{from{stroke-dashoffset:0;}}@keyframes dash{to{stroke-dashoffset:0;}}#my-svg .edge-animation-slow{stroke-dasharray:9,5!important;stroke-dashoffset:900;animation:dash 50s linear infinite;stroke-linecap:round;}#my-svg .edge-animation-fast{stroke-dasharray:9,5!important;stroke-dashoffset:900;animation:dash 20s linear infinite;stroke-linecap:round;}#my-svg .error-icon{fill:#552222;}#my-svg .error-text{fill:#552222;stroke:#552222;}#my-svg .edge-thickness-normal{stroke-width:1px;}#my-svg .edge-thickness-thick{stroke-width:3.5px;}#my-svg .edge-pattern-solid{stroke-dasharray:0;}#my-svg .edge-thickness-invisible{stroke-width:0;fill:none;}#my-svg .edge-pattern-dashed{stroke-dasharray:3;}#my-svg .edge-pattern-dotted{stroke-dasharray:2;}#my-svg .marker{fill:#333333;stroke:#333333;}#my-svg .marker.cross{stroke:#333333;}#my-svg svg{font-family:"trebuchet ms",verdana,arial,sans-serif;font-size:16px;}#my-svg p{margin:0;}#my-svg .label{font-family:"trebuchet ms",verdana,arial,sans-serif;color:#333;}#my-svg .cluster-label text{fill:#333;}#my-svg .cluster-label span{color:#333;}#my-svg .cluster-label span p{background-color:transparent;}#my-svg .label text,#my-svg span{fill:#333;color:#333;}#my-svg .node rect,#my-svg .node circle,#my-svg .node ellipse,#my-svg .node polygon,#my-svg .node path{fill:#ECECFF;stroke:#9370DB;stroke-width:1px;}#my-svg .rough-node .label text,#my-svg .node .label text,#my-svg .image-shape .label,#my-svg .icon-shape .label{text-anchor:middle;}#my-svg .node .katex path{fill:#000;stroke:#000;stroke-width:1px;}#my-svg .rough-node .label,#my-svg .node .label,#my-svg .image-shape .label,#my-svg .icon-shape .label{text-align:center;}#my-svg .node.clickable{cursor:pointer;}#my-svg .root .anchor path{fill:#333333!important;stroke-width:0;stroke:#333333;}#my-svg .arrowheadPath{fill:#333333;}#my-svg .edgePath .path{stroke:#333333;stroke-width:1px;}#my-svg .flowchart-link{stroke:#333333;fill:none;}#my-svg .edgeLabel{background-color:rgba(232,232,232, 0.8);text-align:center;}#my-svg .edgeLabel p{background-color:rgba(232,232,232, 0.8);}#my-svg .edgeLabel rect{opacity:0.5;background-color:rgba(232,232,232, 0.8);fill:rgba(232,232,232, 0.8);}#my-svg .labelBkg{background-color:rgba(232, 232, 232, 0.5);}#my-svg .cluster rect{fill:#ffffde;stroke:#aaaa33;stroke-width:1px;}#my-svg .cluster text{fill:#333;}#my-svg .cluster span{color:#333;}#my-svg div.mermaidTooltip{position:absolute;text-align:center;max-width:200px;padding:2px;font-family:"trebuchet ms",verdana,arial,sans-serif;font-size:12px;background:hsl(80, 100%, 96.2745098039%);border:1px solid #aaaa33;border-radius:2px;pointer-events:none;z-index:100;}#my-svg .flowchartTitleText{text-anchor:middle;font-size:18px;fill:#333;}#my-svg rect.text{fill:none;stroke-width:0;}#my-svg .icon-shape,#my-svg .image-shape{background-color:rgba(232,232,232, 0.8);text-align:center;}#my-svg .icon-shape p,#my-svg .image-shape p{background-color:rgba(232,232,232, 0.8);padding:2px;}#my-svg .icon-shape .label rect,#my-svg .image-shape .label rect{opacity:0.5;background-color:rgba(232,232,232, 0.8);fill:rgba(232,232,232, 0.8);}#my-svg .label-icon{display:inline-block;height:1em;overflow:visible;vertical-align:-0.125em;}#my-svg .node .label-icon path{fill:currentColor;stroke:revert;stroke-width:revert;}#my-svg .node .neo-node{stroke:#9370DB;}#my-svg [data-look="neo"].node rect,#my-svg [data-look="neo"].cluster rect,#my-svg [data-look="neo"].node polygon{stroke:#9370DB;filter:drop-shadow(1px 2px 2px rgba(185, 185, 185, 1));}#my-svg [data-look="neo"].swimlane.cluster rect{filter:none;}#my-svg [data-look="neo"].node path{stroke:#9370DB;stroke-width:1px;}#my-svg [data-look="neo"].node .outer-path{filter:drop-shadow(1px 2px 2px rgba(185, 185, 185, 1));}#my-svg [data-look="neo"].node .neo-line path{stroke:#9370DB;filter:none;}#my-svg [data-look="neo"].node circle{stroke:#9370DB;filter:drop-shadow(1px 2px 2px rgba(185, 185, 185, 1));}#my-svg [data-look="neo"].node circle .state-start{fill:#000000;}#my-svg [data-look="neo"].icon-shape .icon{fill:#9370DB;filter:drop-shadow(1px 2px 2px rgba(185, 185, 185, 1));}#my-svg [data-look="neo"].icon-shape .icon-neo path{stroke:#9370DB;filter:drop-shadow(1px 2px 2px rgba(185, 185, 185, 1));}#my-svg :root{--mermaid-font-family:"trebuchet ms",verdana,arial,sans-serif;}#my-svg .disp&gt;*{fill:rgb(220, 214, 247)!important;color:rgb(58, 46, 119)!important;stroke:rgb(124, 110, 191)!important;stroke-width:1.5px!important;}#my-svg .disp span{fill:rgb(220, 214, 247)!important;color:rgb(58, 46, 119)!important;stroke:rgb(124, 110, 191)!important;stroke-width:1.5px!important;}#my-svg .disp tspan{fill:rgb(58, 46, 119)!important;}#my-svg .sched&gt;*{fill:rgb(205, 231, 255)!important;color:rgb(11, 60, 93)!important;stroke:rgb(59, 130, 246)!important;stroke-width:1.5px!important;}#my-svg .sched span{fill:rgb(205, 231, 255)!important;color:rgb(11, 60, 93)!important;stroke:rgb(59, 130, 246)!important;stroke-width:1.5px!important;}#my-svg .sched tspan{fill:rgb(11, 60, 93)!important;}#my-svg .binder&gt;*{fill:rgb(217, 249, 157)!important;color:rgb(20, 83, 45)!important;stroke:rgb(101, 163, 13)!important;stroke-width:1.5px!important;}#my-svg .binder span{fill:rgb(217, 249, 157)!important;color:rgb(20, 83, 45)!important;stroke:rgb(101, 163, 13)!important;stroke-width:1.5px!important;}#my-svg .binder tspan{fill:rgb(20, 83, 45)!important;}#my-svg .apiserver&gt;*{fill:rgb(244, 244, 244)!important;color:rgb(30, 41, 59)!important;stroke:rgb(100, 116, 139)!important;stroke-width:1.5px!important;}#my-svg .apiserver span{fill:rgb(244, 244, 244)!important;color:rgb(30, 41, 59)!important;stroke:rgb(100, 116, 139)!important;stroke-width:1.5px!important;}#my-svg .apiserver tspan{fill:rgb(30, 41, 59)!important;}</style><g><marker id="my-svg_flowchart-v2-pointEnd" class="marker flowchart-v2" viewBox="0 0 10 10" refX="5" refY="5" markerUnits="userSpaceOnUse" markerWidth="8" markerHeight="8" orient="auto"><path d="M 0 0 L 10 5 L 0 10 z" class="arrowMarkerPath" style="stroke-width: 1; stroke-dasharray: 1, 0;"/></marker><marker id="my-svg_flowchart-v2-pointStart" class="marker flowchart-v2" viewBox="0 0 10 10" refX="4.5" refY="5" markerUnits="userSpaceOnUse" markerWidth="8" markerHeight="8" orient="auto"><path d="M 0 5 L 10 10 L 10 0 z" class="arrowMarkerPath" style="stroke-width: 1; stroke-dasharray: 1, 0;"/></marker><marker id="my-svg_flowchart-v2-pointEnd-margin" class="marker flowchart-v2" viewBox="0 0 11.5 14" refX="11.5" refY="7" markerUnits="userSpaceOnUse" markerWidth="10.5" markerHeight="14" orient="auto"><path d="M 0 0 L 11.5 7 L 0 14 z" class="arrowMarkerPath" style="stroke-width: 0; stroke-dasharray: 1, 0;"/></marker><marker id="my-svg_flowchart-v2-pointStart-margin" class="marker flowchart-v2" viewBox="0 0 11.5 14" refX="1" refY="7" markerUnits="userSpaceOnUse" markerWidth="11.5" markerHeight="14" orient="auto"><polygon points="0,7 11.5,14 11.5,0" class="arrowMarkerPath" style="stroke-width: 0; stroke-dasharray: 1, 0;"/></marker><marker id="my-svg_flowchart-v2-circleEnd" class="marker flowchart-v2" viewBox="0 0 10 10" refX="11" refY="5" markerUnits="userSpaceOnUse" markerWidth="11" markerHeight="11" orient="auto"><circle cx="5" cy="5" r="5" class="arrowMarkerPath" style="stroke-width: 1; stroke-dasharray: 1, 0;"/></marker><marker id="my-svg_flowchart-v2-circleStart" class="marker flowchart-v2" viewBox="0 0 10 10" refX="-1" refY="5" markerUnits="userSpaceOnUse" markerWidth="11" markerHeight="11" orient="auto"><circle cx="5" cy="5" r="5" class="arrowMarkerPath" style="stroke-width: 1; stroke-dasharray: 1, 0;"/></marker><marker id="my-svg_flowchart-v2-circleEnd-margin" class="marker flowchart-v2" viewBox="0 0 10 10" refY="5" refX="12.25" markerUnits="userSpaceOnUse" markerWidth="14" markerHeight="14" orient="auto"><circle cx="5" cy="5" r="5" class="arrowMarkerPath" style="stroke-width: 0; stroke-dasharray: 1, 0;"/></marker><marker id="my-svg_flowchart-v2-circleStart-margin" class="marker flowchart-v2" viewBox="0 0 10 10" refX="-2" refY="5" markerUnits="userSpaceOnUse" markerWidth="14" markerHeight="14" orient="auto"><circle cx="5" cy="5" r="5" class="arrowMarkerPath" style="stroke-width: 0; stroke-dasharray: 1, 0;"/></marker><marker id="my-svg_flowchart-v2-crossEnd" class="marker cross flowchart-v2" viewBox="0 0 11 11" refX="12" refY="5.2" markerUnits="userSpaceOnUse" markerWidth="11" markerHeight="11" orient="auto"><path d="M 1,1 l 9,9 M 10,1 l -9,9" class="arrowMarkerPath" style="stroke-width: 2; stroke-dasharray: 1, 0;"/></marker><marker id="my-svg_flowchart-v2-crossStart" class="marker cross flowchart-v2" viewBox="0 0 11 11" refX="-1" refY="5.2" markerUnits="userSpaceOnUse" markerWidth="11" markerHeight="11" orient="auto"><path d="M 1,1 l 9,9 M 10,1 l -9,9" class="arrowMarkerPath" style="stroke-width: 2; stroke-dasharray: 1, 0;"/></marker><marker id="my-svg_flowchart-v2-crossEnd-margin" class="marker cross flowchart-v2" viewBox="0 0 15 15" refX="17.7" refY="7.5" markerUnits="userSpaceOnUse" markerWidth="12" markerHeight="12" orient="auto"><path d="M 1,1 L 14,14 M 1,14 L 14,1" class="arrowMarkerPath" style="stroke-width: 2.5;"/></marker><marker id="my-svg_flowchart-v2-crossStart-margin" class="marker cross flowchart-v2" viewBox="0 0 15 15" refX="-3.5" refY="7.5" markerUnits="userSpaceOnUse" markerWidth="12" markerHeight="12" orient="auto"><path d="M 1,1 L 14,14 M 1,14 L 14,1" class="arrowMarkerPath" style="stroke-width: 2.5; stroke-dasharray: 1, 0;"/></marker><g class="root"><g class="clusters"/><g class="edgePaths"><path d="M273.367,47.5L273.284,55.583C273.201,63.667,273.034,79.833,272.951,95.417C272.867,111,272.867,126,272.867,133.5L272.867,141" id="my-svg-L_SD_SA_0" class="edge-thickness-normal edge-pattern-solid edge-thickness-normal edge-pattern-solid flowchart-link" style=";" data-edge="true" data-et="edge" data-id="L_SD_SA_0" data-points="W3sieCI6MjczLjM2NzE4NzUsInkiOjQ3LjV9LHsieCI6MjcyLjg2NzE4NzUsInkiOjk2fSx7IngiOjI3Mi44NjcxODc1LCJ5IjoxNDV9XQ==" data-look="classic" marker-end="url(#my-svg_flowchart-v2-pointEnd)"/><path d="M212.156,224.288L188.112,235.898C164.068,247.508,115.979,270.727,96.912,289.946C77.845,309.165,87.799,324.382,92.777,331.991L97.754,339.6" id="my-svg-L_SA_SS_0" class="edge-thickness-normal edge-pattern-solid edge-thickness-normal edge-pattern-solid flowchart-link" style=";" data-edge="true" data-et="edge" data-id="L_SA_SS_0" data-points="W3sieCI6MjEyLjE1NjI1LCJ5IjoyMjQuMjg3OTMzMjQ5NTc4NDN9LHsieCI6NjcuODkwNjI1LCJ5IjoyOTMuOTQ2OTgzMzM3NDAyMzR9LHsieCI6OTkuOTQzNTE1NjI1LCJ5IjozNDIuOTQ2OTgzMzM3NDAyMzR9XQ==" data-look="classic" marker-end="url(#my-svg_flowchart-v2-pointEnd)"/><path d="M167.7,342.947L173.208,334.78C178.715,326.614,189.731,310.28,200.809,294.084C211.888,277.888,223.03,261.83,228.601,253.801L234.172,245.771" id="my-svg-L_SS_SA_0" class="edge-thickness-normal edge-pattern-solid edge-thickness-normal edge-pattern-solid flowchart-link" style=";" data-edge="true" data-et="edge" data-id="L_SS_SA_0" data-points="W3sieCI6MTY3LjY5OTgwNDY4NzUsInkiOjM0Mi45NDY5ODMzMzc0MDIzNH0seyJ4IjoyMDAuNzQ2MDkzNzUsInkiOjI5My45NDY5ODMzMzc0MDIzNH0seyJ4IjoyMzYuNDUxOTUzMzEwNjUxOTYsInkiOjI0Mi40ODUwMDc2NDQxMTEwNX1d" data-look="classic" marker-end="url(#my-svg_flowchart-v2-pointEnd)"/><path d="M309.282,242.485L315.233,251.062C321.184,259.639,333.086,276.793,344.683,293.001C356.28,309.208,367.572,324.47,373.218,332.101L378.863,339.731" id="my-svg-L_SA_SB_0" class="edge-thickness-normal edge-pattern-dotted edge-thickness-normal edge-pattern-solid flowchart-link" style=";" data-edge="true" data-et="edge" data-id="L_SA_SB_0" data-points="W3sieCI6MzA5LjI4MjQyMTY4OTM0ODA0LCJ5IjoyNDIuNDg1MDA3NjQ0MTExMDV9LHsieCI6MzQ0Ljk4ODI4MTI1LCJ5IjoyOTMuOTQ2OTgzMzM3NDAyMzR9LHsieCI6MzgxLjI0MjUzOTA2MjUsInkiOjM0Mi45NDY5ODMzMzc0MDIzNH1d" data-look="classic" marker-end="url(#my-svg_flowchart-v2-pointEnd)"/><path d="M456.711,342.947L462.753,334.78C468.795,326.614,480.88,310.28,460.966,290.442C441.052,270.603,389.139,247.259,363.183,235.587L337.226,223.914" id="my-svg-L_SB_SA_0" class="edge-thickness-normal edge-pattern-solid edge-thickness-normal edge-pattern-solid flowchart-link" style=";" data-edge="true" data-et="edge" data-id="L_SB_SA_0" data-points="W3sieCI6NDU2LjcxMDU4NTkzNzUsInkiOjM0Mi45NDY5ODMzMzc0MDIzNH0seyJ4Ijo0OTIuOTY0ODQzNzUsInkiOjI5My45NDY5ODMzMzc0MDIzNH0seyJ4IjozMzMuNTc4MTI1LCJ5IjoyMjIuMjczOTc5ODY2Njc3MX1d" data-look="classic" marker-end="url(#my-svg_flowchart-v2-pointEnd)"/></g><g class="edgeLabels"><g class="edgeLabel" transform="translate(272.8671875, 96)"><g class="label" data-id="L_SD_SA_0" transform="translate(-57.109375, -24)"><foreignObject width="114.21875" height="48"><div xmlns="http://www.w3.org/1999/xhtml" class="labelBkg" style="display: table-cell; white-space: nowrap; line-height: 1.5; max-width: 200px; text-align: center;"><span class="edgeLabel"><p>① PatchPod<br />scheduler-name</p></span></div></foreignObject></g></g><g class="edgeLabel" transform="translate(113.65966, 271.84728)"><g class="label" data-id="L_SA_SS_0" transform="translate(-59.890625, -12)"><foreignObject width="119.78125" height="24"><div xmlns="http://www.w3.org/1999/xhtml" class="labelBkg" style="display: table-cell; white-space: nowrap; line-height: 1.5; max-width: 200px; text-align: center;"><span class="edgeLabel"><p>② Informer 事件</p></span></div></foreignObject></g></g><g class="edgeLabel" transform="translate(200.74609375, 293.94698333740234)"><g class="label" data-id="L_SS_SA_0" transform="translate(-50.9375, -24)"><foreignObject width="101.875" height="48"><div xmlns="http://www.w3.org/1999/xhtml" class="labelBkg" style="display: table-cell; white-space: nowrap; line-height: 1.5; max-width: 200px; text-align: center;"><span class="edgeLabel"><p>③ PatchPod<br />assumed-node</p></span></div></foreignObject></g></g><g class="edgeLabel" transform="translate(344.98828125, 293.94698333740234)"><g class="label" data-id="L_SA_SB_0" transform="translate(-73.3046875, -24)"><foreignObject width="146.609375" height="48"><div xmlns="http://www.w3.org/1999/xhtml" class="labelBkg" style="display: table-cell; white-space: nowrap; line-height: 1.5; max-width: 200px; text-align: center;"><span class="edgeLabel"><p>④ Informer 事件<br />⚠ 跨进程序列化开销</p></span></div></foreignObject></g></g><g class="edgeLabel" transform="translate(441.06737, 270.60973)"><g class="label" data-id="L_SB_SA_0" transform="translate(-54.671875, -12)"><foreignObject width="109.34375" height="24"><div xmlns="http://www.w3.org/1999/xhtml" class="labelBkg" style="display: table-cell; white-space: nowrap; line-height: 1.5; max-width: 200px; text-align: center;"><span class="edgeLabel"><p>⑤ Pod Bind API</p></span></div></foreignObject></g></g></g><g class="nodes"><g class="node default disp" id="my-svg-flowchart-SD-0" data-look="classic" transform="translate(272.8671875, 27.5)"><g class="basic label-container outer-path"><path d="M-49.3515625 -19.5 C-24.445294083141956 -19.5, 0.46097433371608787 -19.5, 49.3515625 -19.5 C49.3515625 -19.5, 49.3515625 -19.5, 49.3515625 -19.5 C49.64788408700879 -19.490497543459607, 49.94420567401758 -19.480995086919215, 50.6009317896239 -19.45993515863156 C50.97927904782362 -19.423436453662184, 51.35762630602333 -19.38693774869281, 51.845167152847864 -19.3399052695533 C52.32519875313162 -19.26229748312008, 52.80523035341538 -19.184689696686863, 53.07915575967676 -19.140403561325776 C53.46823065606752 -19.051599755175562, 53.85730555245828 -18.962795949025345, 54.29782688623539 -18.862249829261074 C54.72621360486691 -18.735106899819012, 55.15460032349843 -18.60796397037695, 55.496172751460605 -18.50658706670804 C55.95333599019942 -18.3383467688815, 56.41049922893824 -18.170106471054964, 56.6692690951478 -18.074876768247425 C57.046868576302785 -17.907724679030746, 57.424468057457766 -17.740572589814068, 57.81229541279238 -17.568892924097174 C58.199556578913345 -17.366859021784485, 58.5868177450343 -17.164825119471796, 58.92055476407678 -16.990714730406097 C59.22482443154399 -16.806264669900433, 59.52909409901121 -16.621814609394765, 59.9894930736057 -16.342718045390892 C60.325318459517256 -16.108460793825643, 60.66114384542881 -15.87420354226039, 61.01471784457871 -15.627565626425154 C61.23413539792955 -15.452585966574176, 61.453552951280386 -15.277606306723197, 61.992016208501866 -14.848196188198123 C62.35119548733945 -14.52199907052078, 62.71037476617704 -14.195801952843436, 62.91737223676799 -14.007812326905688 C63.25189202877222 -13.662393177075623, 63.58641182077645 -13.316974027245559, 63.78698344296865 -13.10986736009568 C64.01946627092678 -12.836779801728385, 64.25194909888494 -12.56369224336109, 64.59727640812658 -12.158051136245305 C64.74694715176832 -11.957505975050603, 64.89661789541009 -11.7569608138559, 65.34492146464063 -11.156274872382312 C65.51037127474453 -10.902099534567993, 65.67582108484844 -10.647924196753676, 66.02684637860425 -10.108655082055241 C66.16446747143928 -9.86429489607987, 66.3020885642743 -9.619934710104502, 66.6402489742735 -9.019496659696287 C66.81647966078765 -8.65354986841702, 66.99271034730181 -8.287603077137751, 67.18260864880834 -7.893275190886684 C67.2976392416192 -7.609147402678651, 67.41266983443005 -7.325019614470618, 67.65169672997033 -6.734618561215508 C67.74401969464111 -6.456556501293902, 67.83634265931191 -6.178494441372296, 68.04558563421489 -5.548287939305138 C68.1144769323292 -5.285575561917783, 68.18336823044352 -5.022863184530428, 68.36265678754556 -4.339158212148133 C68.42193809445773 -4.034761230262786, 68.4812194013699 -3.7303642483774384, 68.60160727658177 -3.1121979531509023 C68.65396423111994 -2.7061277528029675, 68.70632118565811 -2.300057552455032, 68.76145520250937 -1.872449005199798 C68.78696944605505 -1.475044067249141, 68.81248368960073 -1.077639129298484, 68.84154371591342 -0.6250057626472757 C68.84154371591342 -0.20976934113194584, 68.84154371591342 0.20546708038338402, 68.84154371591342 0.625005762647271 C68.82440965990033 0.8918825154123566, 68.80727560388722 1.1587592681774423, 68.76145520250937 1.8724490051997846 C68.7169885255041 2.2173237711139975, 68.67252184849885 2.5621985370282103, 68.60160727658177 3.1121979531508885 C68.52302275210067 3.5157128775162096, 68.44443822761957 3.919227801881531, 68.36265678754556 4.339158212148129 C68.28145456435787 4.648817482428924, 68.2002523411702 4.958476752709719, 68.04558563421489 5.548287939305125 C67.92231906500204 5.919547205913561, 67.79905249578918 6.2908064725219965, 67.65169672997033 6.734618561215495 C67.47709673559872 7.165883922974609, 67.30249674122712 7.597149284733722, 67.18260864880834 7.893275190886679 C67.06448413547736 8.138563270278162, 66.94635962214637 8.383851349669646, 66.6402489742735 9.019496659696284 C66.4161043649527 9.417488110648254, 66.1919597556319 9.815479561600224, 66.02684637860425 10.108655082055236 C65.84332307066076 10.390596165964876, 65.65979976271727 10.672537249874514, 65.34492146464065 11.156274872382301 C65.09121966752787 11.496212167804238, 64.83751787041508 11.836149463226176, 64.59727640812659 12.158051136245302 C64.30099539512271 12.506079672986889, 64.00471438211882 12.854108209728478, 63.78698344296866 13.10986736009567 C63.5298169044999 13.375412924830135, 63.272650366031144 13.6409584895646, 62.91737223676799 14.007812326905684 C62.68810051863906 14.216030835113134, 62.45882880051013 14.424249343320582, 61.99201620850189 14.848196188198111 C61.69177484968257 15.087630682098412, 61.391533490863246 15.327065175998715, 61.01471784457871 15.627565626425152 C60.63845018652633 15.890033656318103, 60.26218252847394 16.152501686211053, 59.98949307360571 16.34271804539089 C59.62520946075352 16.563548912270015, 59.26092584790133 16.78437977914914, 58.92055476407678 16.990714730406093 C58.64417919489649 17.134899687820454, 58.36780362571619 17.279084645234814, 57.81229541279239 17.56889292409717 C57.53331618412508 17.692388753003403, 57.25433695545777 17.81588458190964, 56.669269095147804 18.07487676824742 C56.393606066442004 18.176323311012258, 56.11794303773621 18.277769853777095, 55.49617275146062 18.506587066708033 C55.18303326999008 18.59952522110581, 54.86989378851953 18.69246337550359, 54.29782688623541 18.86224982926107 C53.842703000892726 18.966128886129628, 53.38757911555004 19.07000794299819, 53.079155759676766 19.140403561325773 C52.789320620538426 19.187261858916585, 52.49948548140009 19.234120156507398, 51.84516715284788 19.3399052695533 C51.59411935076985 19.36412354909061, 51.34307154869182 19.388341828627922, 50.6009317896239 19.45993515863156 C50.22525564933357 19.471982361241423, 49.84957950904324 19.484029563851287, 49.35156250000001 19.5 C49.35156250000001 19.5, 49.3515625 19.5, 49.3515625 19.5 C9.975936702631216 19.5, -29.399689094737568 19.5, -49.35156249999999 19.5 C-49.603646707560785 19.49191615011567, -49.855730915121576 19.483832300231338, -50.60093178962389 19.45993515863156 C-50.865981824015016 19.43436610058315, -51.131031858406146 19.408797042534744, -51.84516715284787 19.3399052695533 C-52.092224200175906 19.299963002097318, -52.33928124750393 19.26002073464134, -53.07915575967676 19.140403561325773 C-53.513979749272615 19.04115782319223, -53.94880373886846 18.941912085058686, -54.297826886235384 18.862249829261074 C-54.7560000129213 18.726266450260514, -55.21417313960721 18.590283071259957, -55.49617275146059 18.506587066708043 C-55.81354220656797 18.389792173497444, -56.13091166167535 18.272997280286845, -56.6692690951478 18.074876768247425 C-57.007120220814016 17.92532009691255, -57.34497134648023 17.77576342557768, -57.81229541279238 17.568892924097174 C-58.23634668056926 17.347665649315775, -58.66039794834614 17.12643837453438, -58.92055476407678 16.990714730406097 C-59.266953023921566 16.78072606962606, -59.61335128376635 16.570737408846018, -59.989493073605686 16.3427180453909 C-60.30390663848742 16.123396753273262, -60.61832020336915 15.904075461155623, -61.01471784457871 15.627565626425156 C-61.36610483933812 15.347343848905167, -61.71749183409752 15.067122071385178, -61.992016208501866 14.848196188198125 C-62.33687478029378 14.535004757754514, -62.68173335208569 14.221813327310901, -62.917372236767974 14.007812326905697 C-63.115830677319416 13.802887693295345, -63.31428911787085 13.597963059684995, -63.786983442968655 13.109867360095677 C-63.956266054078924 12.911018372632109, -64.12554866518919 12.712169385168542, -64.59727640812658 12.158051136245307 C-64.83630149717361 11.837779292555869, -65.07532658622064 11.517507448866432, -65.34492146464063 11.156274872382316 C-65.55895765789155 10.827457802783508, -65.77299385114247 10.4986407331847, -66.02684637860425 10.108655082055249 C-66.24860301757393 9.714903714269923, -66.47035965654361 9.321152346484599, -66.6402489742735 9.019496659696289 C-66.78035105452632 8.728571692347007, -66.92045313477915 8.437646724997725, -67.18260864880834 7.893275190886686 C-67.33012123785142 7.528916243988386, -67.4776338268945 7.164557297090086, -67.65169672997033 6.73461856121551 C-67.7702528177552 6.377546514154832, -67.88880890554007 6.020474467094155, -68.04558563421489 5.5482879393051325 C-68.15733471229066 5.122140272245383, -68.26908379036644 4.695992605185633, -68.36265678754556 4.339158212148136 C-68.42585167926927 4.014665799391945, -68.489046570993 3.690173386635754, -68.60160727658177 3.112197953150904 C-68.6408884177557 2.807541179144607, -68.68016955892963 2.502884405138311, -68.76145520250937 1.872449005199809 C-68.79136738753155 1.4065425787981498, -68.82127957255373 0.9406361523964905, -68.84154371591342 0.6250057626472781 C-68.84154371591342 0.16284259892041453, -68.84154371591342 -0.2993205648064491, -68.84154371591342 -0.6250057626472687 C-68.82504741011815 -0.881949040986895, -68.80855110432289 -1.1388923193265212, -68.76145520250937 -1.8724490051997822 C-68.72385868485321 -2.164040171868773, -68.68626216719706 -2.4556313385377635, -68.60160727658177 -3.112197953150895 C-68.53012805069774 -3.479228670925643, -68.45864882481372 -3.846259388700391, -68.36265678754556 -4.339158212148126 C-68.2704810080281 -4.690664408683768, -68.17830522851064 -5.04217060521941, -68.04558563421489 -5.548287939305123 C-67.93025832283712 -5.895635426263236, -67.81493101145936 -6.242982913221349, -67.65169672997033 -6.734618561215485 C-67.474953850198 -7.171176891344224, -67.2982109704257 -7.6077352214729626, -67.18260864880834 -7.893275190886676 C-66.99426384955731 -8.284377196464561, -66.80591905030629 -8.675479202042444, -66.6402489742735 -9.019496659696282 C-66.41770601728527 -9.41464421474688, -66.19516306029705 -9.809791769797481, -66.02684637860425 -10.108655082055243 C-65.77029862694673 -10.502781321318398, -65.5137508752892 -10.896907560581555, -65.34492146464063 -11.156274872382308 C-65.103273248866 -11.480061466914977, -64.86162503309137 -11.803848061447644, -64.59727640812659 -12.158051136245302 C-64.33427864525524 -12.466983273510635, -64.07128088238389 -12.775915410775967, -63.78698344296866 -13.10986736009567 C-63.5477496410489 -13.35689590203824, -63.30851583912914 -13.603924443980809, -62.917372236767996 -14.007812326905677 C-62.725071908882164 -14.18245439670373, -62.532771580996325 -14.357096466501783, -61.99201620850189 -14.848196188198107 C-61.74210090801791 -15.047496989808627, -61.49218560753394 -15.246797791419146, -61.01471784457872 -15.627565626425149 C-60.76707265821896 -15.800312188042383, -60.519427471859196 -15.973058749659618, -59.989493073605715 -16.342718045390885 C-59.57476797265188 -16.594126838784316, -59.16004287169804 -16.84553563217775, -58.92055476407679 -16.99071473040609 C-58.487219271919656 -17.216785579099838, -58.05388377976252 -17.442856427793583, -57.81229541279239 -17.56889292409717 C-57.53818647004806 -17.690232821897197, -57.26407752730374 -17.81157271969722, -56.669269095147804 -18.07487676824742 C-56.230380834202926 -18.236391705313746, -55.79149257325804 -18.397906642380075, -55.49617275146062 -18.506587066708033 C-55.11416795534333 -18.61996408501155, -54.73216315922605 -18.733341103315066, -54.29782688623541 -18.862249829261067 C-54.028353731534686 -18.923755318344835, -53.75888057683396 -18.985260807428606, -53.079155759676766 -19.140403561325773 C-52.76902275668477 -19.19054346013216, -52.45888975369277 -19.240683358938547, -51.84516715284788 -19.3399052695533 C-51.590286780038646 -19.364493272579708, -51.335406407229414 -19.38908127560612, -50.6009317896239 -19.45993515863156 C-50.16182071914986 -19.474016595983812, -49.72270964867582 -19.488098033336065, -49.35156250000001 -19.5 C-49.35156250000001 -19.5, -49.3515625 -19.5, -49.3515625 -19.5" stroke="none" stroke-width="0" fill="#dcd6f7" style="fill:#dcd6f7 !important;stroke:#7c6ebf !important;stroke-width:1.5px !important"/><path d="M-49.3515625 -19.5 C-15.128415748400442 -19.5, 19.094731003199115 -19.5, 49.3515625 -19.5 M-49.3515625 -19.5 C-17.155872058026837 -19.5, 15.039818383946326 -19.5, 49.3515625 -19.5 M49.3515625 -19.5 C49.3515625 -19.5, 49.3515625 -19.5, 49.3515625 -19.5 M49.3515625 -19.5 C49.3515625 -19.5, 49.3515625 -19.5, 49.3515625 -19.5 M49.3515625 -19.5 C49.649360120257235 -19.490450209946253, 49.94715774051447 -19.48090041989251, 50.6009317896239 -19.45993515863156 M49.3515625 -19.5 C49.67005803214657 -19.489786468198005, 49.98855356429315 -19.47957293639601, 50.6009317896239 -19.45993515863156 M50.6009317896239 -19.45993515863156 C51.03031884230309 -19.41851270607308, 51.45970589498227 -19.377090253514606, 51.845167152847864 -19.3399052695533 M50.6009317896239 -19.45993515863156 C50.91514403412265 -19.429623481300276, 51.2293562786214 -19.399311803968995, 51.845167152847864 -19.3399052695533 M51.845167152847864 -19.3399052695533 C52.32599229073519 -19.26216919011431, 52.80681742862252 -19.184433110675325, 53.07915575967676 -19.140403561325776 M51.845167152847864 -19.3399052695533 C52.284639368439315 -19.268854809894407, 52.72411158403077 -19.197804350235515, 53.07915575967676 -19.140403561325776 M53.07915575967676 -19.140403561325776 C53.346239470248854 -19.07944344727179, 53.61332318082095 -19.018483333217798, 54.29782688623539 -18.862249829261074 M53.07915575967676 -19.140403561325776 C53.443983859494935 -19.05713392826812, 53.808811959313104 -18.97386429521046, 54.29782688623539 -18.862249829261074 M54.29782688623539 -18.862249829261074 C54.71537979659534 -18.738322317246194, 55.13293270695529 -18.614394805231317, 55.496172751460605 -18.50658706670804 M54.29782688623539 -18.862249829261074 C54.615612656187295 -18.767932680830896, 54.933398426139206 -18.673615532400714, 55.496172751460605 -18.50658706670804 M55.496172751460605 -18.50658706670804 C55.81250886541322 -18.390172452594495, 56.12884497936584 -18.27375783848095, 56.6692690951478 -18.074876768247425 M55.496172751460605 -18.50658706670804 C55.8773808784006 -18.366298952144824, 56.258589005340596 -18.226010837581608, 56.6692690951478 -18.074876768247425 M56.6692690951478 -18.074876768247425 C56.93745018835455 -17.95616095359427, 57.2056312815613 -17.83744513894112, 57.81229541279238 -17.568892924097174 M56.6692690951478 -18.074876768247425 C56.968803896970684 -17.942281596864632, 57.26833869879357 -17.809686425481836, 57.81229541279238 -17.568892924097174 M57.81229541279238 -17.568892924097174 C58.157829449004566 -17.38862803873039, 58.50336348521675 -17.208363153363607, 58.92055476407678 -16.990714730406097 M57.81229541279238 -17.568892924097174 C58.21216931823127 -17.360278963761164, 58.61204322367016 -17.15166500342516, 58.92055476407678 -16.990714730406097 M58.92055476407678 -16.990714730406097 C59.23887677481613 -16.79774605682813, 59.557198785555464 -16.604777383250166, 59.9894930736057 -16.342718045390892 M58.92055476407678 -16.990714730406097 C59.15107435019525 -16.850972402617625, 59.38159393631372 -16.711230074829153, 59.9894930736057 -16.342718045390892 M59.9894930736057 -16.342718045390892 C60.384257596861374 -16.067347403048515, 60.779022120117055 -15.79197676070614, 61.01471784457871 -15.627565626425154 M59.9894930736057 -16.342718045390892 C60.20784089431814 -16.190408057786712, 60.42618871503058 -16.038098070182535, 61.01471784457871 -15.627565626425154 M61.01471784457871 -15.627565626425154 C61.40145693877331 -15.31915149036448, 61.788196032967896 -15.010737354303805, 61.992016208501866 -14.848196188198123 M61.01471784457871 -15.627565626425154 C61.25847277400295 -15.43317755680041, 61.502227703427195 -15.23878948717567, 61.992016208501866 -14.848196188198123 M61.992016208501866 -14.848196188198123 C62.32018113598405 -14.550165483826985, 62.648346063466235 -14.252134779455849, 62.91737223676799 -14.007812326905688 M61.992016208501866 -14.848196188198123 C62.33308845543357 -14.538443397811895, 62.67416070236527 -14.228690607425666, 62.91737223676799 -14.007812326905688 M62.91737223676799 -14.007812326905688 C63.23487343795462 -13.679966269347085, 63.55237463914125 -13.352120211788485, 63.78698344296865 -13.10986736009568 M62.91737223676799 -14.007812326905688 C63.17914161303005 -13.737513954249627, 63.440910989292114 -13.467215581593566, 63.78698344296865 -13.10986736009568 M63.78698344296865 -13.10986736009568 C64.11036126307147 -12.730009371883675, 64.43373908317429 -12.350151383671669, 64.59727640812658 -12.158051136245305 M63.78698344296865 -13.10986736009568 C64.08818819854268 -12.756055115162306, 64.3893929541167 -12.40224287022893, 64.59727640812658 -12.158051136245305 M64.59727640812658 -12.158051136245305 C64.84272762902742 -11.829168861304415, 65.08817884992825 -11.500286586363526, 65.34492146464063 -11.156274872382312 M64.59727640812658 -12.158051136245305 C64.80511082994414 -11.879571945115112, 65.01294525176169 -11.60109275398492, 65.34492146464063 -11.156274872382312 M65.34492146464063 -11.156274872382312 C65.58097931931552 -10.793626617192217, 65.8170371739904 -10.430978362002122, 66.02684637860425 -10.108655082055241 M65.34492146464063 -11.156274872382312 C65.54953799395159 -10.841928936129229, 65.75415452326254 -10.527582999876145, 66.02684637860425 -10.108655082055241 M66.02684637860425 -10.108655082055241 C66.2200612703127 -9.76558247669754, 66.41327616202113 -9.422509871339841, 66.6402489742735 -9.019496659696287 M66.02684637860425 -10.108655082055241 C66.26592924746357 -9.684139238629827, 66.50501211632289 -9.259623395204414, 66.6402489742735 -9.019496659696287 M66.6402489742735 -9.019496659696287 C66.78649715781022 -8.71580917737246, 66.93274534134693 -8.412121695048635, 67.18260864880834 -7.893275190886684 M66.6402489742735 -9.019496659696287 C66.84972271345833 -8.584519958258964, 67.05919645264318 -8.149543256821643, 67.18260864880834 -7.893275190886684 M67.18260864880834 -7.893275190886684 C67.3106271695416 -7.577066969605816, 67.43864569027485 -7.2608587483249485, 67.65169672997033 -6.734618561215508 M67.18260864880834 -7.893275190886684 C67.34923049652062 -7.48171600562308, 67.5158523442329 -7.070156820359476, 67.65169672997033 -6.734618561215508 M67.65169672997033 -6.734618561215508 C67.7762632444268 -6.359444066651437, 67.90082975888326 -5.984269572087365, 68.04558563421489 -5.548287939305138 M67.65169672997033 -6.734618561215508 C67.79983694989967 -6.288443821727011, 67.94797716982903 -5.842269082238515, 68.04558563421489 -5.548287939305138 M68.04558563421489 -5.548287939305138 C68.12499953851152 -5.24544830401825, 68.20441344280815 -4.942608668731363, 68.36265678754556 -4.339158212148133 M68.04558563421489 -5.548287939305138 C68.12259646326942 -5.254612271415784, 68.19960729232393 -4.96093660352643, 68.36265678754556 -4.339158212148133 M68.36265678754556 -4.339158212148133 C68.44208960742398 -3.931287470204899, 68.52152242730239 -3.5234167282616657, 68.60160727658177 -3.1121979531509023 M68.36265678754556 -4.339158212148133 C68.45574462938131 -3.8611718184438444, 68.54883247121708 -3.3831854247395556, 68.60160727658177 -3.1121979531509023 M68.60160727658177 -3.1121979531509023 C68.65118281208188 -2.727699889608886, 68.70075834758198 -2.34320182606687, 68.76145520250937 -1.872449005199798 M68.60160727658177 -3.1121979531509023 C68.65333964565934 -2.710971914296986, 68.70507201473693 -2.3097458754430695, 68.76145520250937 -1.872449005199798 M68.76145520250937 -1.872449005199798 C68.79294235147553 -1.3820112440826968, 68.82442950044168 -0.8915734829655958, 68.84154371591342 -0.6250057626472757 M68.76145520250937 -1.872449005199798 C68.77758701906912 -1.6211829409136418, 68.79371883562888 -1.3699168766274856, 68.84154371591342 -0.6250057626472757 M68.84154371591342 -0.6250057626472757 C68.84154371591342 -0.3426680989434475, 68.84154371591342 -0.06033043523961934, 68.84154371591342 0.625005762647271 M68.84154371591342 -0.6250057626472757 C68.84154371591342 -0.21416224404588236, 68.84154371591342 0.196681274555511, 68.84154371591342 0.625005762647271 M68.84154371591342 0.625005762647271 C68.81122394774017 1.0972606256218174, 68.78090417956695 1.5695154885963636, 68.76145520250937 1.8724490051997846 M68.84154371591342 0.625005762647271 C68.81807980055216 0.9904751841306112, 68.79461588519088 1.3559446056139512, 68.76145520250937 1.8724490051997846 M68.76145520250937 1.8724490051997846 C68.70792881889425 2.2875890665386995, 68.65440243527911 2.702729127877615, 68.60160727658177 3.1121979531508885 M68.76145520250937 1.8724490051997846 C68.71860243250595 2.204806627109693, 68.67574966250254 2.537164249019601, 68.60160727658177 3.1121979531508885 M68.60160727658177 3.1121979531508885 C68.5468440550057 3.393395521733051, 68.49208083342963 3.6745930903152133, 68.36265678754556 4.339158212148129 M68.60160727658177 3.1121979531508885 C68.50734092770179 3.596235731449691, 68.41307457882182 4.080273509748494, 68.36265678754556 4.339158212148129 M68.36265678754556 4.339158212148129 C68.26588760557244 4.708181043040413, 68.16911842359931 5.077203873932697, 68.04558563421489 5.548287939305125 M68.36265678754556 4.339158212148129 C68.26381510535467 4.716084384598049, 68.16497342316377 5.093010557047968, 68.04558563421489 5.548287939305125 M68.04558563421489 5.548287939305125 C67.89390931575696 6.005112844160918, 67.74223299729903 6.461937749016709, 67.65169672997033 6.734618561215495 M68.04558563421489 5.548287939305125 C67.91704865976718 5.935420826755945, 67.78851168531945 6.322553714206764, 67.65169672997033 6.734618561215495 M67.65169672997033 6.734618561215495 C67.52749208137716 7.04140644457414, 67.40328743278398 7.3481943279327835, 67.18260864880834 7.893275190886679 M67.65169672997033 6.734618561215495 C67.5548979535131 6.973713410541863, 67.45809917705589 7.21280825986823, 67.18260864880834 7.893275190886679 M67.18260864880834 7.893275190886679 C66.97865882093204 8.316781372299063, 66.77470899305574 8.740287553711449, 66.6402489742735 9.019496659696284 M67.18260864880834 7.893275190886679 C66.99646283234466 8.279810961655931, 66.81031701588098 8.666346732425183, 66.6402489742735 9.019496659696284 M66.6402489742735 9.019496659696284 C66.46070493825775 9.338295276447367, 66.28116090224198 9.65709389319845, 66.02684637860425 10.108655082055236 M66.6402489742735 9.019496659696284 C66.43051873308215 9.391893940421365, 66.2207884918908 9.764291221146449, 66.02684637860425 10.108655082055236 M66.02684637860425 10.108655082055236 C65.78624064448793 10.478290101343996, 65.54563491037162 10.847925120632757, 65.34492146464065 11.156274872382301 M66.02684637860425 10.108655082055236 C65.82059265564772 10.425516187395976, 65.6143389326912 10.742377292736716, 65.34492146464065 11.156274872382301 M65.34492146464065 11.156274872382301 C65.17617397560197 11.382381134481621, 65.00742648656329 11.608487396580939, 64.59727640812659 12.158051136245302 M65.34492146464065 11.156274872382301 C65.16484738269263 11.397557737106307, 64.98477330074459 11.638840601830312, 64.59727640812659 12.158051136245302 M64.59727640812659 12.158051136245302 C64.42335790272678 12.362345708931228, 64.24943939732697 12.566640281617152, 63.78698344296866 13.10986736009567 M64.59727640812659 12.158051136245302 C64.4143520264491 12.37292452365587, 64.2314276447716 12.58779791106644, 63.78698344296866 13.10986736009567 M63.78698344296866 13.10986736009567 C63.56871191743301 13.335250630636748, 63.350440391897365 13.560633901177829, 62.91737223676799 14.007812326905684 M63.78698344296866 13.10986736009567 C63.48053231580371 13.426303308998937, 63.17408118863876 13.742739257902203, 62.91737223676799 14.007812326905684 M62.91737223676799 14.007812326905684 C62.70154464662436 14.203821233789016, 62.48571705648074 14.39983014067235, 61.99201620850189 14.848196188198111 M62.91737223676799 14.007812326905684 C62.69443379366563 14.210279122303277, 62.47149535056327 14.412745917700871, 61.99201620850189 14.848196188198111 M61.99201620850189 14.848196188198111 C61.696082709392265 15.08419527861689, 61.400149210282635 15.320194369035672, 61.01471784457871 15.627565626425152 M61.99201620850189 14.848196188198111 C61.738882053342216 15.050063940755175, 61.48574789818255 15.251931693312239, 61.01471784457871 15.627565626425152 M61.01471784457871 15.627565626425152 C60.636625128014565 15.891306738130396, 60.258532411450425 16.15504784983564, 59.98949307360571 16.34271804539089 M61.01471784457871 15.627565626425152 C60.72718954367227 15.828132922237954, 60.43966124276582 16.028700218050755, 59.98949307360571 16.34271804539089 M59.98949307360571 16.34271804539089 C59.74348764693321 16.49184798072811, 59.49748222026072 16.64097791606533, 58.92055476407678 16.990714730406093 M59.98949307360571 16.34271804539089 C59.66122500648137 16.541716076798956, 59.33295693935702 16.740714108207023, 58.92055476407678 16.990714730406093 M58.92055476407678 16.990714730406093 C58.60946330663783 17.153010944488408, 58.29837184919888 17.31530715857072, 57.81229541279239 17.56889292409717 M58.92055476407678 16.990714730406093 C58.51026432365026 17.20476299037304, 58.09997388322373 17.41881125033999, 57.81229541279239 17.56889292409717 M57.81229541279239 17.56889292409717 C57.37747880569345 17.7613733376835, 56.942662198594505 17.953853751269833, 56.669269095147804 18.07487676824742 M57.81229541279239 17.56889292409717 C57.40208329404714 17.750481660555536, 56.99187117530189 17.932070397013906, 56.669269095147804 18.07487676824742 M56.669269095147804 18.07487676824742 C56.383932830613865 18.179883151215424, 56.098596566079934 18.284889534183428, 55.49617275146062 18.506587066708033 M56.669269095147804 18.07487676824742 C56.37440846407098 18.183388206145487, 56.07954783299416 18.29189964404355, 55.49617275146062 18.506587066708033 M55.49617275146062 18.506587066708033 C55.076825041674006 18.631047265771652, 54.65747733188739 18.755507464835276, 54.29782688623541 18.86224982926107 M55.49617275146062 18.506587066708033 C55.16496139392988 18.604888859059265, 54.83375003639914 18.703190651410495, 54.29782688623541 18.86224982926107 M54.29782688623541 18.86224982926107 C54.033926917949756 18.92248327491404, 53.7700269496641 18.98271672056701, 53.079155759676766 19.140403561325773 M54.29782688623541 18.86224982926107 C53.99098814575558 18.932283769465684, 53.68414940527575 19.0023177096703, 53.079155759676766 19.140403561325773 M53.079155759676766 19.140403561325773 C52.768984750544135 19.190549604670238, 52.4588137414115 19.2406956480147, 51.84516715284788 19.3399052695533 M53.079155759676766 19.140403561325773 C52.75299431966321 19.193134813527422, 52.42683287964965 19.245866065729068, 51.84516715284788 19.3399052695533 M51.84516715284788 19.3399052695533 C51.49685780259382 19.373506253669024, 51.148548452339774 19.407107237784754, 50.6009317896239 19.45993515863156 M51.84516715284788 19.3399052695533 C51.44950589944692 19.378074234816612, 51.05384464604597 19.416243200079926, 50.6009317896239 19.45993515863156 M50.6009317896239 19.45993515863156 C50.33399035035287 19.46849545101899, 50.06704891108184 19.47705574340642, 49.35156250000001 19.5 M50.6009317896239 19.45993515863156 C50.161154994761304 19.4740379444692, 49.72137819989871 19.488140730306842, 49.35156250000001 19.5 M49.35156250000001 19.5 C49.35156250000001 19.5, 49.3515625 19.5, 49.3515625 19.5 M49.35156250000001 19.5 C49.35156250000001 19.5, 49.3515625 19.5, 49.3515625 19.5 M49.3515625 19.5 C26.07232523718341 19.5, 2.79308797436682 19.5, -49.35156249999999 19.5 M49.3515625 19.5 C26.48655002311243 19.5, 3.6215375462248574 19.5, -49.35156249999999 19.5 M-49.35156249999999 19.5 C-49.807124732865155 19.485391005890108, -50.26268696573032 19.470782011780216, -50.60093178962389 19.45993515863156 M-49.35156249999999 19.5 C-49.78723806837892 19.486028732513137, -50.222913636757845 19.472057465026275, -50.60093178962389 19.45993515863156 M-50.60093178962389 19.45993515863156 C-50.91862402179851 19.429287771074485, -51.236316253973115 19.39864038351741, -51.84516715284787 19.3399052695533 M-50.60093178962389 19.45993515863156 C-50.92480345155083 19.42869164891813, -51.248675113477766 19.3974481392047, -51.84516715284787 19.3399052695533 M-51.84516715284787 19.3399052695533 C-52.0933674841764 19.29977816480642, -52.34156781550493 19.25965106005954, -53.07915575967676 19.140403561325773 M-51.84516715284787 19.3399052695533 C-52.31101268463296 19.26459097666034, -52.776858216418056 19.18927668376738, -53.07915575967676 19.140403561325773 M-53.07915575967676 19.140403561325773 C-53.56128193096918 19.03036140889557, -54.0434081022616 18.92031925646537, -54.297826886235384 18.862249829261074 M-53.07915575967676 19.140403561325773 C-53.55568661792461 19.031638502585164, -54.03221747617246 18.922873443844555, -54.297826886235384 18.862249829261074 M-54.297826886235384 18.862249829261074 C-54.53990243163326 18.790403078067452, -54.78197797703114 18.71855632687383, -55.49617275146059 18.506587066708043 M-54.297826886235384 18.862249829261074 C-54.61201961228306 18.7689990774014, -54.926212338330735 18.675748325541722, -55.49617275146059 18.506587066708043 M-55.49617275146059 18.506587066708043 C-55.84864964860988 18.37687231029639, -56.201126545759166 18.24715755388473, -56.6692690951478 18.074876768247425 M-55.49617275146059 18.506587066708043 C-55.877132415233675 18.366390388887023, -56.25809207900675 18.226193711066, -56.6692690951478 18.074876768247425 M-56.6692690951478 18.074876768247425 C-57.01707965954069 17.920911348824504, -57.364890223933585 17.766945929401583, -57.81229541279238 17.568892924097174 M-56.6692690951478 18.074876768247425 C-57.06902878804559 17.89791501065153, -57.46878848094338 17.720953253055637, -57.81229541279238 17.568892924097174 M-57.81229541279238 17.568892924097174 C-58.04011092264645 17.450041718529107, -58.26792643250051 17.33119051296104, -58.92055476407678 16.990714730406097 M-57.81229541279238 17.568892924097174 C-58.18323440613429 17.375374288868464, -58.5541733994762 17.181855653639754, -58.92055476407678 16.990714730406097 M-58.92055476407678 16.990714730406097 C-59.329335302489596 16.74290956575916, -59.7381158409024 16.495104401112222, -59.989493073605686 16.3427180453909 M-58.92055476407678 16.990714730406097 C-59.28932733750755 16.767162629244172, -59.658099910938326 16.543610528082247, -59.989493073605686 16.3427180453909 M-59.989493073605686 16.3427180453909 C-60.34755384716189 16.09295034995916, -60.705614620718094 15.843182654527421, -61.01471784457871 15.627565626425156 M-59.989493073605686 16.3427180453909 C-60.292636390479885 16.13125839040214, -60.59577970735409 15.919798735413385, -61.01471784457871 15.627565626425156 M-61.01471784457871 15.627565626425156 C-61.27064315179833 15.423472004375952, -61.52656845901796 15.219378382326749, -61.992016208501866 14.848196188198125 M-61.01471784457871 15.627565626425156 C-61.393823653943244 15.325238831886217, -61.77292946330777 15.022912037347277, -61.992016208501866 14.848196188198125 M-61.992016208501866 14.848196188198125 C-62.28952484069485 14.57800672008751, -62.58703347288784 14.307817251976896, -62.917372236767974 14.007812326905697 M-61.992016208501866 14.848196188198125 C-62.236776280017864 14.625911567243918, -62.481536351533855 14.40362694628971, -62.917372236767974 14.007812326905697 M-62.917372236767974 14.007812326905697 C-63.22250804025669 13.692734557688224, -63.52764384374541 13.377656788470752, -63.786983442968655 13.109867360095677 M-62.917372236767974 14.007812326905697 C-63.16034071985079 13.75692742003925, -63.4033092029336 13.506042513172803, -63.786983442968655 13.109867360095677 M-63.786983442968655 13.109867360095677 C-64.09620794172555 12.746634668483388, -64.40543244048246 12.383401976871099, -64.59727640812658 12.158051136245307 M-63.786983442968655 13.109867360095677 C-64.02874763180306 12.82587738711873, -64.27051182063745 12.541887414141783, -64.59727640812658 12.158051136245307 M-64.59727640812658 12.158051136245307 C-64.81001830484597 11.872996375826819, -65.02276020156536 11.587941615408333, -65.34492146464063 11.156274872382316 M-64.59727640812658 12.158051136245307 C-64.83707738832781 11.836739669094367, -65.07687836852905 11.515428201943427, -65.34492146464063 11.156274872382316 M-65.34492146464063 11.156274872382316 C-65.49921453495972 10.919239282881597, -65.65350760527879 10.682203693380877, -66.02684637860425 10.108655082055249 M-65.34492146464063 11.156274872382316 C-65.59817590160684 10.767208048863841, -65.85143033857304 10.378141225345365, -66.02684637860425 10.108655082055249 M-66.02684637860425 10.108655082055249 C-66.17356412342818 9.848142869337678, -66.32028186825211 9.58763065662011, -66.6402489742735 9.019496659696289 M-66.02684637860425 10.108655082055249 C-66.22171000828398 9.762654975476705, -66.41657363796371 9.416654868898162, -66.6402489742735 9.019496659696289 M-66.6402489742735 9.019496659696289 C-66.77829742059842 8.732836107139038, -66.91634586692334 8.446175554581789, -67.18260864880834 7.893275190886686 M-66.6402489742735 9.019496659696289 C-66.7527187024363 8.78595086269956, -66.8651884305991 8.552405065702832, -67.18260864880834 7.893275190886686 M-67.18260864880834 7.893275190886686 C-67.28572691067197 7.638571090427545, -67.38884517253561 7.383866989968405, -67.65169672997033 6.73461856121551 M-67.18260864880834 7.893275190886686 C-67.28033846865547 7.651880646386756, -67.37806828850259 7.410486101886826, -67.65169672997033 6.73461856121551 M-67.65169672997033 6.73461856121551 C-67.80687727720006 6.267239477622064, -67.9620578244298 5.7998603940286175, -68.04558563421489 5.5482879393051325 M-67.65169672997033 6.73461856121551 C-67.80304696474373 6.278775768463129, -67.95439719951713 5.8229329757107475, -68.04558563421489 5.5482879393051325 M-68.04558563421489 5.5482879393051325 C-68.12253909313235 5.254831048612816, -68.19949255204979 4.9613741579205, -68.36265678754556 4.339158212148136 M-68.04558563421489 5.5482879393051325 C-68.1317850560464 5.219572184795852, -68.2179844778779 4.89085643028657, -68.36265678754556 4.339158212148136 M-68.36265678754556 4.339158212148136 C-68.43217647813701 3.982189293952831, -68.50169616872847 3.6252203757575256, -68.60160727658177 3.112197953150904 M-68.36265678754556 4.339158212148136 C-68.418867161497 4.050529821974233, -68.47507753544843 3.7619014318003297, -68.60160727658177 3.112197953150904 M-68.60160727658177 3.112197953150904 C-68.64187717411025 2.7998725801108106, -68.68214707163871 2.4875472070707176, -68.76145520250937 1.872449005199809 M-68.60160727658177 3.112197953150904 C-68.65358026546409 2.7091057146071638, -68.70555325434641 2.306013476063423, -68.76145520250937 1.872449005199809 M-68.76145520250937 1.872449005199809 C-68.78250612099184 1.5445639578396753, -68.80355703947433 1.2166789104795415, -68.84154371591342 0.6250057626472781 M-68.76145520250937 1.872449005199809 C-68.79180811354364 1.3996779154123458, -68.8221610245779 0.9269068256248824, -68.84154371591342 0.6250057626472781 M-68.84154371591342 0.6250057626472781 C-68.84154371591342 0.3277723115822843, -68.84154371591342 0.03053886051729049, -68.84154371591342 -0.6250057626472687 M-68.84154371591342 0.6250057626472781 C-68.84154371591342 0.34191197807860113, -68.84154371591342 0.05881819350992412, -68.84154371591342 -0.6250057626472687 M-68.84154371591342 -0.6250057626472687 C-68.81272788334391 -1.073835614638668, -68.78391205077442 -1.5226654666300674, -68.76145520250937 -1.8724490051997822 M-68.84154371591342 -0.6250057626472687 C-68.82444267759938 -0.8913682380980515, -68.80734163928534 -1.1577307135488344, -68.76145520250937 -1.8724490051997822 M-68.76145520250937 -1.8724490051997822 C-68.71106067019868 -2.2632990462755207, -68.66066613788797 -2.654149087351259, -68.60160727658177 -3.112197953150895 M-68.76145520250937 -1.8724490051997822 C-68.71799437529913 -2.2095225987313283, -68.67453354808889 -2.546596192262874, -68.60160727658177 -3.112197953150895 M-68.60160727658177 -3.112197953150895 C-68.52824158939312 -3.4889152510211634, -68.45487590220446 -3.8656325488914316, -68.36265678754556 -4.339158212148126 M-68.60160727658177 -3.112197953150895 C-68.51466040511069 -3.558651761927112, -68.4277135336396 -4.0051055707033285, -68.36265678754556 -4.339158212148126 M-68.36265678754556 -4.339158212148126 C-68.29390593745305 -4.601335000357797, -68.22515508736053 -4.863511788567468, -68.04558563421489 -5.548287939305123 M-68.36265678754556 -4.339158212148126 C-68.26235388406333 -4.721656654679236, -68.1620509805811 -5.104155097210345, -68.04558563421489 -5.548287939305123 M-68.04558563421489 -5.548287939305123 C-67.90118933897092 -5.983186574154624, -67.75679304372696 -6.418085209004125, -67.65169672997033 -6.734618561215485 M-68.04558563421489 -5.548287939305123 C-67.89241034308749 -6.009627511012464, -67.73923505196011 -6.470967082719806, -67.65169672997033 -6.734618561215485 M-67.65169672997033 -6.734618561215485 C-67.4748828480617 -7.171352267993662, -67.29806896615307 -7.608085974771839, -67.18260864880834 -7.893275190886676 M-67.65169672997033 -6.734618561215485 C-67.51432681988884 -7.073924894983317, -67.37695690980733 -7.413231228751148, -67.18260864880834 -7.893275190886676 M-67.18260864880834 -7.893275190886676 C-67.02152471071145 -8.227769434989021, -66.86044077261455 -8.562263679091364, -66.6402489742735 -9.019496659696282 M-67.18260864880834 -7.893275190886676 C-67.02860491236399 -8.213067244765451, -66.87460117591965 -8.532859298644228, -66.6402489742735 -9.019496659696282 M-66.6402489742735 -9.019496659696282 C-66.48944431221227 -9.287265607813914, -66.33863965015105 -9.555034555931545, -66.02684637860425 -10.108655082055243 M-66.6402489742735 -9.019496659696282 C-66.4097446488463 -9.42878043058626, -66.1792403234191 -9.838064201476236, -66.02684637860425 -10.108655082055243 M-66.02684637860425 -10.108655082055243 C-65.77934674726389 -10.488880978750739, -65.53184711592353 -10.869106875446233, -65.34492146464063 -11.156274872382308 M-66.02684637860425 -10.108655082055243 C-65.78550541639395 -10.479419609132751, -65.54416445418364 -10.850184136210261, -65.34492146464063 -11.156274872382308 M-65.34492146464063 -11.156274872382308 C-65.07743496512332 -11.514682413214114, -64.80994846560598 -11.87308995404592, -64.59727640812659 -12.158051136245302 M-65.34492146464063 -11.156274872382308 C-65.1451411616923 -11.423962277973082, -64.94536085874394 -11.691649683563856, -64.59727640812659 -12.158051136245302 M-64.59727640812659 -12.158051136245302 C-64.40679219068315 -12.381804736913384, -64.21630797323972 -12.605558337581467, -63.78698344296866 -13.10986736009567 M-64.59727640812659 -12.158051136245302 C-64.3207384162357 -12.482888396977849, -64.04420042434481 -12.807725657710396, -63.78698344296866 -13.10986736009567 M-63.78698344296866 -13.10986736009567 C-63.475439154302485 -13.431562416405283, -63.163894865636316 -13.753257472714898, -62.917372236767996 -14.007812326905677 M-63.78698344296866 -13.10986736009567 C-63.52984657462318 -13.375382287991892, -63.272709706277695 -13.640897215888113, -62.917372236767996 -14.007812326905677 M-62.917372236767996 -14.007812326905677 C-62.596331267152664 -14.299373241231736, -62.27529029753734 -14.590934155557795, -61.99201620850189 -14.848196188198107 M-62.917372236767996 -14.007812326905677 C-62.614673952090584 -14.282714900091964, -62.31197566741318 -14.557617473278253, -61.99201620850189 -14.848196188198107 M-61.99201620850189 -14.848196188198107 C-61.783662454564485 -15.014352762436936, -61.57530870062709 -15.180509336675765, -61.01471784457872 -15.627565626425149 M-61.99201620850189 -14.848196188198107 C-61.70996765215465 -15.073122406257728, -61.42791909580742 -15.298048624317346, -61.01471784457872 -15.627565626425149 M-61.01471784457872 -15.627565626425149 C-60.693263947057055 -15.851797949821318, -60.37181004953539 -16.076030273217487, -59.989493073605715 -16.342718045390885 M-61.01471784457872 -15.627565626425149 C-60.80302188512012 -15.775235563573084, -60.59132592566152 -15.922905500721019, -59.989493073605715 -16.342718045390885 M-59.989493073605715 -16.342718045390885 C-59.68167994650976 -16.529316171947176, -59.3738668194138 -16.715914298503463, -58.92055476407679 -16.99071473040609 M-59.989493073605715 -16.342718045390885 C-59.655861281352514 -16.544967598492814, -59.32222948909931 -16.747217151594743, -58.92055476407679 -16.99071473040609 M-58.92055476407679 -16.99071473040609 C-58.61388449432132 -17.15070441370584, -58.30721422456584 -17.310694097005587, -57.81229541279239 -17.56889292409717 M-58.92055476407679 -16.99071473040609 C-58.587369620078995 -17.16453720661447, -58.25418447608121 -17.338359682822848, -57.81229541279239 -17.56889292409717 M-57.81229541279239 -17.56889292409717 C-57.45689057765518 -17.726220101902562, -57.10148574251797 -17.88354727970795, -56.669269095147804 -18.07487676824742 M-57.81229541279239 -17.56889292409717 C-57.54366253314188 -17.687808731207205, -57.275029653491366 -17.80672453831724, -56.669269095147804 -18.07487676824742 M-56.669269095147804 -18.07487676824742 C-56.21481976924731 -18.242118321062318, -55.76037044334683 -18.409359873877214, -55.49617275146062 -18.506587066708033 M-56.669269095147804 -18.07487676824742 C-56.264935872980196 -18.223675131620432, -55.860602650812595 -18.372473494993447, -55.49617275146062 -18.506587066708033 M-55.49617275146062 -18.506587066708033 C-55.18836510140657 -18.59794276152875, -54.880557451352516 -18.689298456349466, -54.29782688623541 -18.862249829261067 M-55.49617275146062 -18.506587066708033 C-55.24239840573736 -18.58190596042997, -54.988624060014104 -18.65722485415191, -54.29782688623541 -18.862249829261067 M-54.29782688623541 -18.862249829261067 C-53.96785448494583 -18.937563876584264, -53.63788208365625 -19.012877923907457, -53.079155759676766 -19.140403561325773 M-54.29782688623541 -18.862249829261067 C-53.96225990208817 -18.93884080361346, -53.62669291794092 -19.01543177796585, -53.079155759676766 -19.140403561325773 M-53.079155759676766 -19.140403561325773 C-52.68324007465728 -19.20441213890773, -52.28732438963779 -19.26842071648969, -51.84516715284788 -19.3399052695533 M-53.079155759676766 -19.140403561325773 C-52.81915888928975 -19.1824378390241, -52.55916201890274 -19.22447211672243, -51.84516715284788 -19.3399052695533 M-51.84516715284788 -19.3399052695533 C-51.40784834966181 -19.38209288854385, -50.97052954647575 -19.424280507534398, -50.6009317896239 -19.45993515863156 M-51.84516715284788 -19.3399052695533 C-51.45904124860584 -19.377154371151185, -51.07291534436381 -19.414403472749076, -50.6009317896239 -19.45993515863156 M-50.6009317896239 -19.45993515863156 C-50.27392574659 -19.470421605953007, -49.946919703556105 -19.480908053274455, -49.35156250000001 -19.5 M-50.6009317896239 -19.45993515863156 C-50.2378132498396 -19.47157966343508, -49.8746947100553 -19.483224168238603, -49.35156250000001 -19.5 M-49.35156250000001 -19.5 C-49.35156250000001 -19.5, -49.3515625 -19.5, -49.3515625 -19.5 M-49.35156250000001 -19.5 C-49.35156250000001 -19.5, -49.3515625 -19.5, -49.3515625 -19.5" stroke="#7c6ebf" stroke-width="1.5" fill="none" stroke-dasharray="0 0" style="fill:#dcd6f7 !important;stroke:#7c6ebf !important;stroke-width:1.5px !important"/></g><g class="label" style="color:#3a2e77 !important" transform="translate(-56.4765625, -12)"><rect/><foreignObject width="112.953125" height="24"><div style="color: rgb(58, 46, 119) !important; display: table-cell; white-space: nowrap; line-height: 1.5; max-width: 200px; text-align: center;" xmlns="http://www.w3.org/1999/xhtml"><span style="color:#3a2e77 !important" class="nodeLabel"><p>Dispatcher 进程</p></span></div></foreignObject></g></g><g class="node default sched" id="my-svg-flowchart-SS-1" data-look="classic" transform="translate(133.3046875, 393.94698333740234)"><rect class="basic label-container" style="fill:#cde7ff !important;stroke:#3b82f6 !important;stroke-width:1.5px !important" x="-114.78125" y="-51" width="229.5625" height="102"/><g class="label" style="color:#0b3c5d !important" transform="translate(-84.78125, -36)"><rect/><foreignObject width="169.5625" height="72"><div style="color: rgb(11, 60, 93) !important; display: table-cell; white-space: nowrap; line-height: 1.5; max-width: 200px; text-align: center;" xmlns="http://www.w3.org/1999/xhtml"><span style="color:#0b3c5d !important" class="nodeLabel"><p>Scheduler 进程<br />(N 实例)<br />Filter / Score / Reserve</p></span></div></foreignObject></g></g><g class="node default binder" id="my-svg-flowchart-SB-2" data-look="classic" transform="translate(418.9765625, 393.94698333740234)"><rect class="basic label-container" style="fill:#d9f99d !important;stroke:#65a30d !important;stroke-width:1.5px !important" x="-114.34375" y="-51" width="228.6875" height="102"/><g class="label" style="color:#14532d !important" transform="translate(-84.34375, -36)"><rect/><foreignObject width="168.6875" height="72"><div style="color: rgb(20, 83, 45) !important; display: table-cell; white-space: nowrap; line-height: 1.5; max-width: 200px; text-align: center;" xmlns="http://www.w3.org/1999/xhtml"><span style="color:#14532d !important" class="nodeLabel"><p>Binder 进程<br />(独立 Deployment)<br />Informer + Pod Bind API</p></span></div></foreignObject></g></g><g class="node default apiserver" id="my-svg-flowchart-SA-3" data-look="classic" transform="translate(272.8671875, 194.97349166870117)"><path d="M0,12.318495973622474 a60.7109375,12.318495973622474 0,0,0 121.421875,0 a60.7109375,12.318495973622474 0,0,0 -121.421875,0 l0,75.31849597362248 a60.7109375,12.318495973622474 0,0,0 121.421875,0 l0,-75.31849597362248" class="basic label-container outer-path" style="fill:#f4f4f4 !important;stroke:#64748b !important;stroke-width:1.5px !important" transform="translate(-60.7109375, -49.97774396043371)"/><g class="label" style="color:#1e293b !important" transform="translate(-53.2109375, -14)"><rect/><foreignObject width="106.421875" height="48"><div style="color: rgb(30, 41, 59) !important; display: table-cell; white-space: nowrap; line-height: 1.5; max-width: 200px; text-align: center;" xmlns="http://www.w3.org/1999/xhtml"><span style="color:#1e293b !important" class="nodeLabel"><p>kube-apiserver<br />/ etcd</p></span></div></foreignObject></g></g></g></g></g><defs><filter id="my-svg-drop-shadow" height="130%" width="130%"><feDropShadow dx="4" dy="4" stdDeviation="0" flood-opacity="0.06" flood-color="#000000"/></filter></defs><defs><filter id="my-svg-drop-shadow-small" height="150%" width="150%"><feDropShadow dx="2" dy="2" stdDeviation="0" flood-opacity="0.06" flood-color="#000000"/></filter></defs></svg>